<svg width="781" height="372" viewBox="0 0 781 372" fill="none" xmlns="http://www.w3.org/2000/svg">
<rect x="331" y="266" width="114" height="57" fill="white"/>
<path d="M247.6 250.999H198V68.9992H132L0 250.999V302.999H136V366.999H198V302.999H247.6V250.999ZM60.4 250.999L136 143.799V250.999H60.4Z" fill="#4B80FB"/>
<path d="M388.378 371.799C460.778 371.799 508.778 309.799 508.778 217.799C508.778 125.799 460.778 64.1992 387.978 64.1992C315.978 64.1992 267.578 125.399 267.578 217.799C267.578 310.199 316.378 371.799 388.378 371.799ZM388.378 315.799C351.178 315.799 329.178 279.399 329.178 217.799C329.178 155.799 350.778 120.199 387.978 120.199C425.578 120.199 447.178 156.199 447.178 217.799C447.178 279.799 425.578 315.799 388.378 315.799Z" fill="#4B80FB"/>
<path d="M780.413 250.999H730.812V68.9992H664.812L532.812 250.999V302.999H668.812V366.999H730.812V302.999H780.413V250.999ZM593.213 250.999L668.812 143.799V250.999H593.213Z" fill="#4B80FB"/>
<path d="M398.958 32.7438L396.415 98.0056L363.535 96.9488C363.149 93.1577 362.718 78.4736 362.718 78.4736C362.718 78.4736 348.992 76.9956 348.181 63.4718C347.787 56.902 348.084 43.2599 348.493 30.9554C348.716 24.3988 351.511 18.1888 356.279 13.6526C361.047 9.1163 367.412 6.6135 374.012 6.67899C377.385 6.72101 380.715 7.43337 383.806 8.77411C386.898 10.1149 389.688 12.0569 392.012 14.4858C394.337 16.9147 396.149 19.7814 397.342 22.917C398.535 26.0527 399.084 29.3939 398.958 32.7438V32.7438Z" fill="#FCC6AB"/>
<path d="M362.703 78.4721C369 78.2922 375.1 76.2549 380.229 72.6191C380.229 72.6191 376.511 82.5588 362.844 81.9824L362.703 78.4721Z" fill="#EB996E"/>
<path d="M352.973 40.6358C352.992 41.1402 353.209 41.6172 353.577 41.9651C353.945 42.313 354.435 42.5042 354.943 42.4981C355.191 42.506 355.438 42.4645 355.67 42.3762C355.902 42.2879 356.114 42.1545 356.293 41.9839C356.472 41.8132 356.616 41.6086 356.714 41.3822C356.813 41.1558 356.866 40.9121 356.868 40.6653C356.849 40.1602 356.633 39.6824 356.265 39.3334C355.897 38.9843 355.407 38.7914 354.898 38.7956C354.65 38.7888 354.402 38.8311 354.17 38.9202C353.939 39.0093 353.727 39.1434 353.548 39.3147C353.368 39.486 353.225 39.691 353.127 39.9178C353.028 40.1446 352.976 40.3887 352.973 40.6358V40.6358Z" fill="#1E1C61"/>
<path d="M351.751 37.8509C352.004 38.0948 353.424 36.9419 355.521 36.8458C357.617 36.7498 359.201 37.7253 359.417 37.4592C359.521 37.341 359.253 36.8976 358.562 36.4394C357.624 35.8582 356.528 35.5794 355.424 35.6413C354.339 35.6909 353.297 36.0816 352.45 36.7572C351.825 37.2671 351.624 37.7474 351.751 37.8509Z" fill="#1E1C61"/>
<path d="M372.812 40.5697C372.83 41.0716 373.043 41.5471 373.406 41.896C373.77 42.2448 374.255 42.4397 374.76 42.4394C375.009 42.4473 375.257 42.4056 375.489 42.3168C375.722 42.2281 375.934 42.094 376.113 41.9226C376.293 41.7511 376.436 41.5457 376.534 41.3184C376.632 41.0912 376.684 40.8466 376.686 40.5992C376.667 40.1031 376.456 39.6335 376.097 39.288C375.739 38.9425 375.26 38.7478 374.76 38.7443C374.511 38.7324 374.261 38.7706 374.027 38.8567C373.792 38.9428 373.578 39.075 373.396 39.2454C373.214 39.4158 373.069 39.6209 372.969 39.8484C372.868 40.076 372.815 40.3213 372.812 40.5697V40.5697Z" fill="#1E1C61"/>
<path d="M372.356 37.2665C372.609 37.503 374.029 36.3502 376.126 36.2615C378.223 36.1728 379.844 37.1335 380.022 36.8675C380.126 36.7492 379.859 36.3058 379.167 35.855C378.231 35.2753 377.138 34.9966 376.037 35.0569C374.951 35.1029 373.908 35.4941 373.063 36.1728C372.431 36.6975 372.23 37.1631 372.356 37.2665Z" fill="#1E1C61"/>
<path d="M365.483 53.0655C365.483 52.9473 364.182 52.7847 362.056 52.6147C361.52 52.6147 361.007 52.5039 360.903 52.1417C360.83 51.5958 360.928 51.0406 361.186 50.5529C361.624 49.2374 362.085 47.8703 362.569 46.4292C364.494 40.5615 365.855 35.7505 365.617 35.6766C365.379 35.6027 363.602 40.2954 361.706 46.1336C361.245 47.5771 360.806 48.9566 360.39 50.2721C360.081 50.9283 360.018 51.6724 360.212 52.3708C360.298 52.5546 360.425 52.7165 360.584 52.8445C360.742 52.9725 360.928 53.0632 361.126 53.1098C361.427 53.1737 361.734 53.201 362.041 53.1911C364.167 53.2355 365.483 53.1837 365.483 53.0655Z" fill="#1E1C61"/>
<path d="M371.722 54.2116C371.387 54.2116 371.484 56.4286 369.618 58.1653C367.751 59.9019 365.32 59.7246 365.312 60.0424C365.312 60.1828 365.878 60.4562 366.896 60.434C368.229 60.3896 369.503 59.8793 370.495 58.993C371.45 58.1455 372.032 56.9593 372.116 55.6896C372.161 54.7437 371.878 54.1894 371.722 54.2116Z" fill="#1E1C61"/>
<path d="M371.425 29.1362C371.655 29.6979 373.737 29.3284 376.206 29.5058C378.674 29.6831 380.667 30.2448 380.994 29.7348C381.128 29.4836 380.764 28.9958 379.931 28.4637C378.83 27.8427 377.601 27.4787 376.337 27.3993C375.073 27.32 373.808 27.5273 372.637 28.0056C371.782 28.3972 371.321 28.8776 371.425 29.1362Z" fill="#1E1C61"/>
<path d="M352.238 31.7897C352.632 32.2479 354.045 31.6863 355.784 31.5828C357.524 31.4793 358.997 31.7528 359.316 31.2429C359.45 30.9916 359.197 30.5039 358.536 30.1122C357.647 29.6188 356.631 29.3977 355.617 29.4766C354.602 29.5555 353.633 29.9309 352.833 30.5556C352.245 31.0729 352.067 31.568 352.238 31.7897Z" fill="#1E1C61"/>
<path d="M383.473 18.7898L383.554 18.8415C385.805 20.4424 387.349 22.8425 387.867 25.5443C387.867 25.6404 387.867 25.7291 387.919 25.8178C388.663 29.6532 388.722 33.5921 389.481 37.4202C390.239 41.2483 391.763 45.1133 394.76 47.6333C395.994 48.6753 398.113 49.3256 399.028 48.0028C399.326 47.4525 399.465 46.831 399.429 46.207C399.712 36.8438 401.876 28.4708 401.4 18.7011C401.341 17.3941 400.969 16.1199 400.316 14.9839C399.663 13.8479 398.747 12.8827 397.645 12.1683C395.518 10.8011 392.938 9.40441 390.707 10.5794C388.477 11.7545 385.718 16.1516 384.015 18.036" fill="#1E1C61"/>
<path d="M394.676 39.3127C394.899 39.2019 403.903 36.1202 404.045 45.3948C404.186 54.6693 394.795 52.8957 394.772 52.6297C394.75 52.3636 394.676 39.3127 394.676 39.3127Z" fill="#FCC6AB"/>
<path d="M397.566 49.0882C397.611 49.0882 397.729 49.1991 398.005 49.3173C398.396 49.472 398.832 49.472 399.224 49.3173C400.205 48.9404 401.008 47.3737 401.03 45.7036C401.042 44.9083 400.874 44.1205 400.54 43.3979C400.448 43.1087 400.288 42.8459 400.071 42.6322C399.855 42.4185 399.59 42.2602 399.298 42.1711C399.111 42.1247 398.913 42.1451 398.739 42.2288C398.565 42.3125 398.426 42.4543 398.347 42.6293C398.22 42.8953 398.287 43.0801 398.235 43.0949C398.183 43.1097 398.034 42.9397 398.101 42.5554C398.149 42.3258 398.275 42.1196 398.458 41.9716C398.714 41.7753 399.036 41.6852 399.358 41.7203C399.742 41.7894 400.101 41.9556 400.402 42.2028C400.703 42.4499 400.935 42.7699 401.075 43.1318C401.484 43.9298 401.691 44.8153 401.677 45.711C401.677 47.5807 400.711 49.3395 399.373 49.746C399.124 49.8219 398.861 49.8414 398.604 49.803C398.346 49.7647 398.101 49.6694 397.886 49.5242C397.588 49.2952 397.536 49.0882 397.566 49.0882Z" fill="#EB996E"/>
<path d="M392.109 13.448C394.8 10.0117 389.135 4.04047 384.673 2.10427C380.212 0.168068 373.988 1.74216 369.267 2.74721C366.293 3.38276 363.281 4.3952 360.27 3.9444C358.271 3.52075 356.346 2.80342 354.56 1.81606C352.766 0.830304 350.791 0.214486 348.752 0.00548904C346.715 -0.0758018 344.514 0.744495 343.548 2.55506C342.581 4.36563 343.391 6.98911 345.369 7.51381C342.96 5.82887 339.049 7.26994 338.313 10.1077C337.577 12.9455 340.306 16.0789 343.235 15.7685C342.031 14.6305 339.822 16.0494 339.807 17.7047C339.793 19.3601 341.153 20.7125 342.596 21.5402C346.314 23.6464 350.842 23.5946 354.991 22.693C359.14 21.7914 363.081 20.0991 367.207 19.0941C371.334 18.089 378.264 16.2267 382.078 18.0594C384.904 19.4044 386.54 23.1364 388.294 22.5378C389.121 22.2096 389.859 21.6929 390.448 21.0292C391.037 20.3655 391.461 19.5735 391.685 18.7172C392.103 16.9936 392.236 15.214 392.079 13.448" fill="#1E1C61"/>
<path d="M345.894 8.18572C345.894 8.18572 345.715 8.26701 345.425 8.47393C345 8.77804 344.67 9.19569 344.473 9.67852C344.153 10.4353 344.082 11.2738 344.273 12.0729C344.395 12.5977 344.624 13.0923 344.945 13.5268C345.266 13.9612 345.672 14.3264 346.139 14.6003C347.289 15.2632 348.594 15.6172 349.924 15.6275C351.455 15.6364 352.979 15.4147 354.444 14.9698C357.575 14.0682 360.675 12.2281 363.947 10.3584C367.219 8.48871 370.557 6.92941 373.873 6.53034C375.434 6.32783 377.019 6.42568 378.543 6.81856C379.878 7.16366 381.138 7.74983 382.261 8.54783C383.89 9.68054 385.202 11.2064 386.075 12.9819C386.412 13.6185 386.662 14.297 386.819 14.9994C386.774 14.9994 386.595 14.2604 385.963 13.0484C385.052 11.3406 383.735 9.8795 382.127 8.79171C381.034 8.03272 379.812 7.47686 378.52 7.15111C377.033 6.78061 375.489 6.69781 373.97 6.90724C370.743 7.31369 367.449 8.86561 364.2 10.7205C360.95 12.5754 357.798 14.4156 354.608 15.3319C353.104 15.7818 351.539 15.9963 349.968 15.9675C348.585 15.9468 347.232 15.559 346.05 14.8442C345.54 14.5175 345.096 14.0989 344.741 13.61C344.347 13.0317 344.108 12.363 344.047 11.6672C343.986 10.9714 344.104 10.2716 344.392 9.63418C344.614 9.13886 344.979 8.71984 345.44 8.4296C345.579 8.32767 345.732 8.24559 345.894 8.18572V8.18572Z" fill="#5A4980"/>
<path d="M378.859 3.50253C379.061 3.46791 379.267 3.46791 379.469 3.50253C380.018 3.53972 380.562 3.63637 381.09 3.79074C382.861 4.28692 384.44 5.3043 385.619 6.70907C386.797 8.11384 387.52 9.84022 387.693 11.6612C387.747 12.2067 387.747 12.7562 387.693 13.3018C387.686 13.5022 387.643 13.6999 387.566 13.8856C387.492 13.8856 387.618 13.0357 387.425 11.6686C387.191 9.92087 386.464 8.27465 385.329 6.91995C384.193 5.56525 382.695 4.5573 381.008 4.01244C379.714 3.60599 378.852 3.57643 378.859 3.50253Z" fill="#5A4980"/>
<path d="M401.203 27.2586C400.975 27.3863 400.72 27.4573 400.459 27.4655C399.728 27.5279 398.995 27.3709 398.355 27.0147C397.398 26.5003 396.62 25.7092 396.124 24.7459C395.548 23.5864 395.118 22.3601 394.845 21.0952C394.58 19.8594 394.163 18.6606 393.604 17.5258C393.14 16.6152 392.412 15.8635 391.514 15.3679C390.912 15.0283 390.228 14.8596 389.537 14.8802C389.053 14.8802 388.793 15.0058 388.793 14.9689C389.018 14.8323 389.273 14.7513 389.537 14.7324C390.264 14.65 391 14.7864 391.648 15.1241C392.617 15.6141 393.411 16.388 393.923 17.3411C394.511 18.5014 394.941 19.734 395.202 21.0066C395.469 22.2416 395.878 23.4418 396.422 24.5834C396.873 25.5034 397.584 26.2735 398.467 26.8004C399.061 27.1513 399.738 27.3376 400.43 27.3399C400.92 27.3103 401.188 27.2216 401.203 27.2586Z" fill="#5A4980"/>
<path d="M400.716 33.3897C400.716 33.3897 400.642 33.3897 400.486 33.4488C400.265 33.4951 400.042 33.5248 399.817 33.5375C398.984 33.5987 398.146 33.5339 397.333 33.3453C394.606 32.7143 392.217 31.0867 390.641 28.7857C389.101 26.5079 388.158 23.8838 387.897 21.1517C387.87 20.6926 387.798 20.2372 387.682 19.7919C387.59 19.4676 387.4 19.1788 387.139 18.9642C386.907 18.7869 386.628 18.6816 386.336 18.6613C386.489 18.6117 386.652 18.602 386.809 18.633C386.967 18.6641 387.114 18.7349 387.236 18.8386C387.537 19.0585 387.763 19.3656 387.883 19.718C388.026 20.1724 388.121 20.6406 388.165 21.1148C388.5 23.7805 389.457 26.3315 390.961 28.564C392.486 30.7815 394.76 32.3832 397.37 33.0793C398.467 33.3261 399.592 33.4304 400.716 33.3897V33.3897Z" fill="#5A4980"/>
<path d="M335.48 267.478L441.064 266.798L430.409 203.376L428.558 94.3356L407.471 87.9358L397.061 82.0977L362.806 86.4061L358.396 91.956C358.396 91.956 343.406 96.9813 336.923 99.9299L336.476 100.129C331.878 102.214 327.982 105.573 325.256 109.803L296.682 153.988L254.894 129.771L240.172 151.077C240.172 151.077 291.477 193.525 300.779 192.661C310.08 191.796 313.307 191.789 316.52 187.443C318.981 184.103 328.654 172.789 333.264 165.229L337.971 217.469L335.48 267.478Z" fill="white"/>
<path d="M368.933 267.54C368.822 267.54 367.974 244.306 367.045 215.64C366.116 186.974 365.432 163.725 365.558 163.725C365.684 163.725 366.51 186.952 367.446 215.633C368.383 244.313 369.037 267.54 368.933 267.54Z" fill="#DCE6FF"/>
<path d="M362.945 85.9774L365.6 165.303L397.037 82.0977L362.945 85.9774Z" fill="#FCC6AB"/>
<path d="M365.839 169.768C365.795 169.691 365.76 169.609 365.735 169.524C365.66 169.347 365.571 169.11 365.46 168.785C365.199 168.135 364.842 167.218 364.381 166.043C363.422 163.679 362.017 160.257 360.069 156.126C359.072 154.064 357.957 151.825 356.634 149.475C355.265 146.994 353.613 144.678 351.711 142.572C350.67 141.508 349.429 140.392 348.99 138.759C348.801 137.949 348.822 137.105 349.049 136.306C349.25 135.508 349.533 134.739 349.793 133.963C350.827 130.837 351.905 127.608 352.998 124.304L353.065 124.097L353.265 124.349L340.625 125.487V125.117L347.369 111.815C349.444 107.765 351.317 104.196 352.931 101.255C354.544 98.3133 355.905 95.9928 356.849 94.4335C357.333 93.6501 357.719 93.0515 357.987 92.6525L358.292 92.2091C358.366 92.1056 358.403 92.0539 358.411 92.0612L358.322 92.2238L358.039 92.6894C357.786 93.1254 357.422 93.724 356.961 94.5C356.031 96.0814 354.73 98.4093 353.139 101.365C351.548 104.321 349.704 107.898 347.652 111.963L344.425 118.392L342.692 121.836L341.792 123.609L341.324 124.504L341.079 124.947L340.952 125.176L340.878 125.287C340.825 125.369 340.747 125.432 340.655 125.464V125.095L353.295 123.942H353.585L353.496 124.223L353.429 124.422C352.328 127.726 351.25 130.955 350.217 134.081C349.726 135.626 349.012 137.178 349.414 138.67C349.815 140.163 350.99 141.257 352.031 142.321C353.956 144.468 355.621 146.831 356.991 149.364C358.314 151.714 359.415 153.968 360.396 156.015C362.314 160.168 363.69 163.612 364.604 165.999C365.051 167.196 365.393 168.127 365.608 168.763C365.722 169.078 365.804 169.325 365.854 169.502C365.855 169.591 365.85 169.68 365.839 169.768V169.768Z" fill="#DCE6FF"/>
<path d="M365.727 170.513C365.716 170.428 365.716 170.341 365.727 170.255L365.846 169.516C366.022 168.549 366.283 167.599 366.627 166.678C367.976 163.302 369.689 160.081 371.735 157.071C373.007 155.149 374.457 153.08 376.1 150.907C377.834 148.59 379.695 146.369 381.677 144.256C383.879 141.885 386.29 139.713 388.882 137.768C390.266 136.75 391.703 135.805 393.187 134.938C394.674 134.051 396.235 133.208 397.722 132.225L397.67 132.491C395.644 129.483 392.897 127.023 389.677 125.33L389.409 125.19L389.655 125.013C394.252 121.606 399.609 119.353 405.269 118.443L405.128 118.598L406.742 96.5461C406.95 93.8856 407.113 91.7721 407.232 90.3088C407.292 89.5698 407.336 89.0525 407.374 88.6608L407.418 88.2396C407.409 88.1907 407.409 88.1407 407.418 88.0918C407.423 88.1409 407.423 88.1905 407.418 88.2396V88.6608C407.418 89.0599 407.366 89.6141 407.329 90.3162C407.24 91.7942 407.106 93.893 406.942 96.5608C406.578 101.948 406.072 109.567 405.455 118.628V118.761H405.321C399.716 119.674 394.414 121.915 389.863 125.293V124.976C393.14 126.695 395.935 129.196 397.997 132.255L398.109 132.41L397.945 132.521C396.458 133.511 394.882 134.361 393.387 135.248C391.914 136.103 390.486 137.036 389.112 138.041C386.544 139.971 384.151 142.12 381.959 144.463C379.976 146.575 378.114 148.795 376.382 151.114C374.732 153.265 373.267 155.319 371.988 157.233C369.923 160.209 368.179 163.392 366.783 166.73C366.423 167.638 366.14 168.575 365.936 169.531C365.869 169.841 365.817 170.092 365.779 170.27C365.771 170.352 365.754 170.434 365.727 170.513Z" fill="#DCE6FF"/>
<path d="M405.726 146.33H383.523V150.624H405.726V146.33Z" fill="#DCE6FF"/>
<path d="M400.712 185.002C400.592 185.057 400.464 185.094 400.333 185.113L399.232 185.349C397.876 185.63 396.502 185.825 395.121 185.933C393.054 186.119 390.97 185.868 389.009 185.194C386.567 184.35 384.545 182.607 383.358 180.324C382.304 178.022 381.778 175.515 381.819 172.986C381.819 170.673 381.893 168.626 381.9 166.882C381.908 165.138 381.96 163.741 382.012 162.765C382.012 162.278 382.064 161.901 382.086 161.649C382.086 161.517 382.106 161.385 382.146 161.258C382.155 161.388 382.155 161.519 382.146 161.649C382.146 161.952 382.146 162.322 382.146 162.773C382.146 163.8 382.146 165.189 382.146 166.882V172.978C382.125 175.453 382.647 177.902 383.677 180.154C384.816 182.351 386.755 184.035 389.098 184.862C391.005 185.529 393.03 185.798 395.046 185.652C396.419 185.569 397.786 185.416 399.143 185.194L400.259 185.032C400.408 185.004 400.56 184.994 400.712 185.002V185.002Z" fill="#DCE6FF"/>
<path d="M404.722 160.746C404.722 160.849 399.666 161.056 393.435 161.197C387.204 161.337 382.141 161.374 382.141 161.263C382.141 161.152 387.189 160.96 393.428 160.812C399.666 160.664 404.722 160.679 404.722 160.746Z" fill="#DCE6FF"/>
<path d="M393.73 160.906V153.582C393.73 153.012 393.958 152.465 394.364 152.061C394.77 151.658 395.32 151.432 395.894 151.432V151.432C396.468 151.432 397.018 151.658 397.424 152.061C397.829 152.465 398.057 153.012 398.057 153.582V165.65C398.064 165.747 398.052 165.845 398.021 165.937C397.99 166.029 397.941 166.114 397.876 166.188C397.747 166.336 397.563 166.427 397.366 166.441C397.169 166.455 396.974 166.39 396.825 166.261C396.676 166.132 396.584 165.95 396.57 165.754C396.57 165.665 396.57 165.561 396.57 165.465C396.57 163.625 396.362 160.817 396.362 160.817L393.73 160.906Z" fill="#4B7FFB"/>
<path d="M393.346 173.553C393.154 171.836 393.089 170.107 393.153 168.38C393.089 166.653 393.154 164.924 393.346 163.207C393.538 164.924 393.603 166.653 393.539 168.38C393.602 170.107 393.538 171.836 393.346 173.553V173.553Z" fill="#DCE6FF"/>
<path d="M397.533 183.139C397.429 183.139 397.34 179.444 397.34 174.906C397.34 170.369 397.429 166.674 397.533 166.674C397.637 166.674 397.726 170.369 397.726 174.906C397.726 179.444 397.645 183.139 397.533 183.139Z" fill="#DCE6FF"/>
<path d="M363.504 102.663L373.832 115.189C381.126 107.873 386.368 100.646 390.933 97.4531C390.933 97.4531 365.608 166.417 365.571 165.272C365.534 164.126 363.504 102.663 363.504 102.663Z" fill="#F57E71"/>
<path d="M390.965 97.4802C390.888 97.5845 390.801 97.681 390.705 97.7684L389.902 98.5074C389.203 99.1652 388.206 100.141 386.987 101.353C384.541 103.769 381.291 107.265 377.745 111.108C374.198 114.95 370.904 118.424 368.406 120.803C367.157 121.993 366.13 122.932 365.394 123.56L364.547 124.299C364.452 124.389 364.347 124.469 364.234 124.535C364.234 124.535 364.316 124.424 364.495 124.247L365.29 123.508C365.997 122.85 366.993 121.875 368.212 120.663C370.651 118.246 373.901 114.751 377.455 110.908C381.009 107.065 384.295 103.592 386.794 101.212C388.043 100.022 389.069 99.0839 389.805 98.4557L390.645 97.7167C390.846 97.5467 390.95 97.4654 390.965 97.4802Z" fill="#F14937"/>
<path d="M373.767 115.134C373.685 115.2 371.321 112.466 368.488 109.022C365.655 105.578 363.424 102.726 363.506 102.659C363.588 102.593 365.952 105.327 368.785 108.778C371.618 112.23 373.849 115.067 373.767 115.134Z" fill="#F14937"/>
<path d="M329.861 126.619C329.909 126.788 329.939 126.961 329.951 127.136C330.003 127.513 330.062 128.008 330.136 128.614C330.293 129.908 330.493 131.777 330.731 134.098C331.2 138.731 331.757 145.139 332.337 152.218C332.917 159.298 333.452 165.668 333.824 170.346C334.017 172.63 334.173 174.499 334.285 175.837C334.337 176.458 334.374 176.953 334.404 177.315C334.417 177.49 334.417 177.665 334.404 177.84C334.355 177.671 334.323 177.498 334.307 177.322C334.263 176.946 334.203 176.45 334.121 175.844C333.965 174.551 333.765 172.682 333.534 170.361C333.066 165.727 332.501 159.32 331.921 152.241C331.341 145.161 330.813 138.791 330.434 134.113C330.241 131.829 330.084 129.959 329.965 128.622C329.921 128.001 329.884 127.506 329.854 127.144C329.838 126.969 329.841 126.793 329.861 126.619V126.619Z" fill="#DCE6FF"/>
<path d="M427.041 94.1699C427.041 94.1699 443.593 94.1699 447.742 125.814C451.891 157.459 461.014 215.493 444.426 226.497C427.837 237.501 350.969 236.725 350.969 236.725V206.071L414.037 199.153C414.037 199.153 413.799 193.448 417.011 193.493L413.427 121.158C413.427 121.158 412.683 95.5445 427.041 94.1699Z" fill="white"/>
<path d="M413.589 145.199C413.589 145.199 413.589 145.495 413.656 146.071C413.723 146.648 413.738 147.549 413.805 148.643C413.924 150.912 414.102 154.223 414.332 158.464C414.771 166.97 415.403 179.194 416.176 194.085V194.24H416.013C415.48 194.253 414.968 194.449 414.563 194.794C414.153 195.184 413.846 195.669 413.671 196.206C413.297 197.345 413.136 198.542 413.195 199.738V199.893H413.046L350.989 206.241L351.16 206.049V236.725L350.975 236.541C377.824 236.829 401.239 235.802 417.783 233.695C421.924 233.171 425.62 232.572 428.839 231.944C431.577 231.407 434.285 230.729 436.951 229.912C438.029 229.55 438.981 229.173 439.799 228.885C440.617 228.596 441.286 228.249 441.814 227.976L442.989 227.31L443.398 227.096C443.398 227.096 443.271 227.185 443.011 227.34L441.844 228.035C441.316 228.315 440.632 228.604 439.836 228.981C439.041 229.357 438.074 229.66 436.988 230.03C434.324 230.873 431.616 231.573 428.876 232.129C425.657 232.779 421.954 233.392 417.82 233.932C401.261 236.068 377.832 237.184 350.967 236.888H350.781V236.703C350.781 227.835 350.781 218.479 350.781 208.85V205.894H350.96L413.016 199.612L412.868 199.782C412.801 198.53 412.972 197.276 413.373 196.087C413.565 195.505 413.9 194.979 414.347 194.558C414.812 194.166 415.396 193.942 416.005 193.922L415.857 194.085C415.113 179.194 414.556 166.97 414.154 158.457C413.961 154.215 413.805 150.904 413.7 148.636C413.656 147.512 413.626 146.655 413.596 146.064C413.567 145.473 413.589 145.199 413.589 145.199Z" fill="#DCE6FF"/>
<path d="M425.1 201.546C425.033 201.546 424.788 200.911 424.223 199.95C423.479 198.703 422.526 197.59 421.405 196.662C420.279 195.74 419.004 195.013 417.635 194.511C416.587 194.134 415.888 194.016 415.903 193.949C416.523 193.943 417.14 194.046 417.724 194.252C419.162 194.69 420.498 195.408 421.654 196.363C422.811 197.318 423.765 198.493 424.461 199.817C424.776 200.351 424.993 200.937 425.1 201.546V201.546Z" fill="#DCE6FF"/>
<path d="M417.684 207.238C416.791 204.314 415.146 201.672 412.91 199.574C413.327 199.767 413.703 200.038 414.018 200.372C414.839 201.111 415.551 201.962 416.13 202.9C416.715 203.832 417.166 204.842 417.468 205.9C417.629 206.327 417.703 206.782 417.684 207.238V207.238Z" fill="#DCE6FF"/>
<path d="M199.777 117.33L244.985 236.798L340.881 238.727L301.361 118.15L199.777 117.33Z" fill="#294197"/>
<g opacity="0.5">
<path opacity="0.5" d="M260.166 237.009C260.166 237.009 237.206 193.193 230.075 163.958C226.008 147.427 222.387 117.475 222.387 117.475L282.242 117.999C282.242 117.999 302.095 149.4 313.524 180.778C320.368 199.498 325.388 218.828 328.514 238.502L297.798 237.829L287.693 208.55C287.693 208.55 284.54 210.242 280.205 208.055L290.615 237.674L260.166 237.009Z" fill="white"/>
</g>
<path d="M292.976 189.958C292.418 188.347 290.002 182.656 290.388 179.818C290.775 176.981 293.6 173.906 293.757 171.061C293.913 168.216 293.994 161.875 293.266 158.786C292.499 156.054 291.558 153.374 290.448 150.761C290.448 150.761 286.113 143.94 281.756 143.784L276.454 143.592C276.454 143.592 272.617 144.509 274.476 149.224C276.335 153.938 280.722 162.031 281.354 163.427C281.986 164.824 284.945 170.219 284.276 173.677C283.607 177.136 278.544 186.787 279.213 189.137L276.499 189.041C276.499 189.041 273.993 184.725 270.476 182.9C266.959 181.075 259.412 173.197 257.836 168.489C256.259 163.782 254.49 152.83 253.426 149.512C252.363 146.194 250.72 143.282 247.961 142.543C245.203 141.804 241.507 142.735 241.507 142.735C241.507 142.735 236.563 144.427 238.771 151.817C240.979 159.208 242.221 159.658 244.838 163.982C247.456 168.305 248.117 169.598 250.192 171.475C252.266 173.352 257.174 175.429 259.286 179.944C261.397 184.459 262.49 189.699 266.267 196.158C270.045 202.617 271.472 205.026 274.447 205.026C277.421 205.026 278.387 201.678 278.499 199.668C278.571 198.613 278.571 197.553 278.499 196.498L282.098 196.631C282.098 196.631 286.165 204.184 290.433 205.602C294.701 207.021 294.403 203.208 294.619 201.73C294.835 200.252 293.563 191.561 292.976 189.958ZM271.896 198.678C270.766 198.102 268.796 194.318 266.84 191.037C265.353 188.583 265.509 187.29 265.665 186.795C265.69 186.708 265.728 186.626 265.777 186.551L265.717 186.632C265.866 185.775 267.316 186.152 268.379 186.573C269.16 186.883 272.878 188.324 274.09 193.675C275.302 199.025 273.056 199.247 271.918 198.678H271.896ZM290.544 199.35C289.801 199.853 287.295 199.461 284.804 194.067C282.313 188.672 285.116 187.46 285.704 187.201C286.499 186.846 287.726 186.566 288.47 187.452L288.358 187.371C288.458 187.448 288.553 187.532 288.641 187.622C289.705 188.803 290.327 190.311 290.403 191.894C290.745 195.109 291.325 198.848 290.567 199.35H290.544Z" fill="white"/>
<path d="M277.765 187.284C278.657 187.225 278.025 183.855 278.025 183.855C278.121 182.586 278.121 181.311 278.025 180.042C277.861 178.453 278.687 176.997 279.259 175.527C279.832 174.056 279.259 170.132 278.516 168.136C277.772 166.141 278.293 165.986 278.293 165.986C280.583 165.247 278.471 160.51 276.932 156.083C275.393 151.657 273.861 151.974 273.861 151.974C273.861 151.974 272.835 151.937 272.248 155.544C271.66 159.15 270.656 160.429 268.455 160.421H267.281C265.05 160.421 263.094 158.869 259.972 155.13C256.849 151.391 255.83 151.354 255.83 151.354C255.83 151.354 254.038 150.918 255.555 155.344C257.072 159.771 258.209 164.456 261.079 165.402C261.079 165.402 261.674 165.609 262.351 167.619C263.028 169.629 265.154 173.583 266.768 175.127C268.381 176.672 270.247 178.231 271.184 179.842C272.121 181.453 273.868 183.752 273.868 183.752C273.868 183.752 276.002 187.181 276.954 187.306L277.765 187.284Z" fill="white"/>
<path d="M249.932 118.558C249.932 118.558 248.765 118.891 249.605 120.834C250.445 122.778 250.348 123.923 250.832 124.448C251.344 124.975 251.891 125.469 252.468 125.926C252.468 125.926 251.129 126.384 252.118 128.461C253.107 130.538 253.36 132.585 253.813 133.494C254.267 134.403 255.226 134.698 255.672 135.223C256.118 135.748 254.185 135.164 254.691 136.967C255.196 138.77 256.341 140.086 256.334 141.748C256.327 143.411 257.144 145.599 258.736 146.419C260.327 147.239 260.029 148.377 260.074 149.271C260.168 150.497 260.418 151.707 260.818 152.87C261.442 155.183 265.019 158.782 267.212 158.583C269.406 158.383 271.51 155.812 270.982 154.26C270.084 152.142 268.882 150.166 267.413 148.392C266.483 147.468 265.695 147.439 265.866 146.426C266.037 145.414 267.182 146.98 267.13 145.576C267.173 144.129 266.796 142.7 266.045 141.46C265.16 140.152 264.892 138.874 264.045 137.181C263.197 135.489 261.539 135.179 261.673 134.802C261.807 134.425 262.714 134.587 261.963 132.902C261.212 131.217 261.167 132.363 260.364 129.784C259.561 127.205 259.197 125.66 258.416 125.889C257.635 126.118 257.754 124.973 257.479 123.177C257.204 121.381 257.858 122.046 256.736 120.095C255.613 118.144 249.932 118.558 249.932 118.558Z" fill="white"/>
<path d="M251.429 182.035L252.418 179.685L250.819 174.963C250.819 174.963 253.496 173.345 257.221 178.717C260.946 184.09 260.701 186.639 260.701 186.639L256.284 186.484C255.668 188.023 255.613 189.728 256.128 191.303C257.028 193.727 258.359 193.431 259.541 197.68C260.159 199.625 260.599 201.621 260.857 203.644L274.627 236.796L268.478 236.574L253.607 201.449C253.607 201.449 251.919 200.363 249.146 195.035C246.373 189.706 243.77 182.782 245.547 180.912C247.324 179.042 251.429 182.035 251.429 182.035Z" fill="white"/>
<path d="M300.552 183.818L297.897 181.372L296.239 176.649C296.239 176.649 292.358 174.794 292.291 180.027C292.224 185.259 294.261 187.897 294.261 187.897L298.678 188.052C298.678 188.052 301.436 190.594 302.202 193.004C302.968 195.413 301.459 195.021 303.154 199.293C303.941 201.364 304.881 203.374 305.965 205.308L314.976 238.275L321.133 238.497L311.853 203.542C311.853 203.542 312.835 202.552 311.92 197.29C311.006 192.028 308.887 185.133 305.749 183.086C304.962 182.5 303.972 182.247 302.998 182.385C302.024 182.522 301.144 183.037 300.552 183.818Z" fill="white"/>
<path d="M199.777 117.33L301.361 117.988H301.473L301.51 118.099C312.611 151.93 325.958 192.62 340.316 236.34L341.059 238.638L341.148 238.897H340.873L244.955 236.953H244.836L244.792 236.842L199.777 117.33C200.313 118.756 218.255 165.957 245.134 236.739L244.978 236.628L340.896 238.535L340.71 238.786C340.457 238.047 340.204 237.264 339.966 236.488L301.227 118.202L301.376 118.313L199.777 117.33Z" fill="#1E1C61"/>
<path d="M351.114 208.567H341.499C341.499 208.567 336.577 203.844 335.239 203.179C333.9 202.514 327.327 200.541 327.327 200.541L329.863 207.532C330.26 207.645 330.65 207.78 331.03 207.938C332.711 208.589 332.242 210.067 330.904 210.067H321.223C321.223 210.067 311.304 205.337 309.832 206.202C308.597 206.941 308.166 208.234 309.43 210.067C310.694 211.9 319.386 216.208 320.383 216.541L323.223 217.368L320.554 218.196L307.913 213.814C307.088 213.666 305.958 213.533 305.586 214.006C305.426 214.167 305.3 214.358 305.216 214.569C305.132 214.78 305.092 215.005 305.098 215.232C305.105 215.458 305.157 215.681 305.252 215.887C305.348 216.093 305.484 216.278 305.653 216.43C307.454 218.048 309.364 219.542 311.371 220.901C311.371 220.901 309.356 223.857 311.021 225.335C312.687 226.813 317.535 231.313 317.535 231.313C317.535 231.313 318.04 233.804 319.542 234.964C321.044 236.124 337.581 236.124 338.748 236.124C339.916 236.124 346.6 232.311 346.6 232.311L350.972 231.853L351.114 208.567Z" fill="#FCC6AB"/>
<path d="M322.446 225.646C321.863 225.833 321.251 225.915 320.639 225.89C319.964 225.892 319.295 225.775 318.661 225.543C317.904 225.245 317.183 224.864 316.512 224.405C315.077 223.481 313.798 222.624 312.876 221.988C312.36 221.676 311.879 221.309 311.441 220.895C312.001 221.125 312.535 221.415 313.033 221.759C313.984 222.336 315.263 223.156 316.75 224.08C317.4 224.523 318.093 224.902 318.817 225.21C319.41 225.449 320.038 225.587 320.676 225.617C321.747 225.669 322.446 225.58 322.446 225.646Z" fill="#EB996E"/>
<path d="M323.208 231.797C323.245 231.797 322.851 232.27 321.959 232.5C320.79 232.748 319.57 232.545 318.546 231.93C317.543 231.364 316.614 230.676 315.78 229.883C315.409 229.583 315.089 229.223 314.836 228.819C314.925 228.716 316.442 230.297 318.732 231.591C319.681 232.163 320.801 232.391 321.9 232.233C322.348 232.127 322.786 231.981 323.208 231.797V231.797Z" fill="#EB996E"/>
<path d="M327.917 218.195C327.04 218.303 326.15 218.235 325.3 217.995C324.424 217.88 323.58 217.593 322.816 217.152C323.684 217.228 324.543 217.384 325.382 217.618C326.243 217.733 327.091 217.926 327.917 218.195V218.195Z" fill="#EB996E"/>
<path d="M196.032 138.931C195.561 138.664 195.149 138.305 194.821 137.876C194.492 137.448 194.255 136.957 194.122 136.434C193.99 135.912 193.965 135.368 194.049 134.836C194.133 134.303 194.325 133.793 194.612 133.336C194.964 132.686 195.475 132.134 196.099 131.733C197.713 130.883 211.989 128.222 213.521 128.038C215.052 127.853 215.335 130.75 213.335 132.191C211.335 133.632 196.069 138.945 196.069 138.945L196.032 138.931Z" fill="#FCC6AB"/>
<path d="M199.358 149.218C198.89 148.951 198.481 148.592 198.154 148.164C197.828 147.737 197.592 147.248 197.459 146.727C197.327 146.207 197.301 145.665 197.383 145.135C197.465 144.604 197.654 144.095 197.938 143.639C198.288 142.986 198.8 142.434 199.425 142.035C201.039 141.185 215.612 137.379 216.847 138.34C218.334 139.448 218.661 141.045 216.661 142.493C214.661 143.942 199.396 149.248 199.396 149.248L199.358 149.218Z" fill="#FCC6AB"/>
<path d="M202.255 147.089C201.581 147.243 200.95 147.543 200.407 147.967C199.863 148.391 199.42 148.929 199.109 149.542C198.768 150.203 198.666 150.959 198.819 151.686C199.055 152.773 199.584 153.776 200.348 154.589C201.113 155.401 202.086 155.991 203.162 156.297C205.772 157.11 214.27 155.211 214.27 155.211L212.307 149.764L218.256 147.828C220.68 146.867 219.505 143.098 216.59 143.83C215.639 144.066 205.66 146.246 202.255 147.089Z" fill="#FCC6AB"/>
<path d="M197.791 143.786C197.322 143.519 196.912 143.161 196.585 142.733C196.258 142.305 196.021 141.816 195.888 141.296C195.756 140.775 195.73 140.233 195.813 139.702C195.896 139.171 196.086 138.662 196.371 138.206C196.723 137.556 197.234 137.004 197.858 136.602C199.471 135.753 212.454 133.454 213.963 133.136C215.473 132.819 217.094 135.59 215.093 137.031C213.093 138.472 197.791 143.786 197.791 143.786Z" fill="#FCC6AB"/>
<path d="M212.467 138.604C211.725 138.856 210.965 139.048 210.192 139.18C208.779 139.49 206.824 139.919 204.66 140.318C202.817 140.606 201.048 141.252 199.455 142.217C198.831 142.677 198.273 143.219 197.797 143.828C197.797 143.828 197.856 143.607 198.072 143.259C198.391 142.772 198.794 142.344 199.262 141.996C199.942 141.486 200.693 141.077 201.492 140.784C202.476 140.429 203.485 140.147 204.511 139.941C206.682 139.512 208.653 139.158 210.08 138.914C210.865 138.741 211.664 138.637 212.467 138.604V138.604Z" fill="#EB996E"/>
<path d="M209.959 133.891C209.25 134.129 208.521 134.304 207.781 134.415L202.479 135.435C200.72 135.725 199.041 136.377 197.55 137.349C197.001 137.824 196.502 138.354 196.062 138.931C196.062 138.931 196.122 138.716 196.323 138.384C196.612 137.91 196.979 137.488 197.408 137.135C198.486 136.189 200.383 135.509 202.427 135.066C204.472 134.622 206.39 134.371 207.759 134.149C208.484 134.002 209.22 133.915 209.959 133.891V133.891Z" fill="#EB996E"/>
<path d="M212.661 144.645C211.999 144.909 211.315 145.117 210.616 145.265C209.345 145.605 207.568 146.056 205.59 146.381C203.893 146.598 202.254 147.14 200.764 147.977C200.213 148.386 199.713 148.86 199.277 149.389C199.277 149.389 199.329 149.189 199.538 148.879C199.846 148.445 200.226 148.065 200.66 147.756C202.135 146.83 203.794 146.232 205.523 146.004C207.508 145.679 209.241 145.265 210.564 145.007C211.25 144.821 211.952 144.7 212.661 144.645Z" fill="#EB996E"/>
<path d="M213.471 149.389C212.488 149.914 211.448 150.328 210.371 150.623C209.327 151.032 208.239 151.322 207.129 151.487C208.111 150.961 209.152 150.549 210.23 150.261C211.274 149.849 212.361 149.557 213.471 149.389V149.389Z" fill="#EB996E"/>
</svg>
